<svg xmlns="http://www.w3.org/2000/svg" viewBox="0 0 140 140">
    <defs>
        <linearGradient id="cairnGrad" x1="0" x2="1" y1="0" y2="0">
            <stop stop-color="#905e26" offset="0" />
            <stop stop-color="#f5ec9b" offset="0.5" />
            <stop stop-color="#905e26" offset="1" />
        </linearGradient>
    </defs>
    <g transform="matrix(2.8,0,0,2.8,0,0)" fill="url(#cairnGrad)">
        <circle cx="25" cy="25" r="25" />
    </g>
    <g
        transform="matrix(1.13636412896422,0,0,1.13636412896422,13.181815226214681,13.669311986971763)"
        fill="#000000">
        <g data-name="Layer 2">
            <path
                d="M92.786,64.479c-.279-.053-6.912-1.31-11.654.416a19.366,19.366,0,0,0-3.524,1.69,19.364,19.364,0,0,0,.38-3.852c0-5.12-4.193-10.956-4.372-11.2a1.532,1.532,0,0,0-1.279-.618,1.5,1.5,0,0,0-1.221.727c-.146.245-3.594,6.044-3.594,11.093a19.362,19.362,0,0,0,.381,3.852A19.4,19.4,0,0,0,64.379,64.9c-4.745-1.731-11.375-.472-11.654-.417a1.5,1.5,0,0,0-.956,2.314c.17.251,4.232,6.184,9.031,7.933a19.144,19.144,0,0,0,3.739.948,19.19,19.19,0,0,0-2.759,2.691c-3.248,3.866-4.334,10.528-4.379,10.81a1.5,1.5,0,0,0,1.482,1.734,1.465,1.465,0,0,0,.365-.045c.3-.074,7.259-1.859,10.54-5.778a17.872,17.872,0,0,0,2.967-4.825,17.861,17.861,0,0,0,2.969,4.826c3.291,3.918,10.244,5.7,10.538,5.777a1.473,1.473,0,0,0,.366.045,1.5,1.5,0,0,0,1.481-1.735c-.045-.281-1.131-6.943-4.377-10.807a19.322,19.322,0,0,0-2.753-2.692,19.029,19.029,0,0,0,3.73-.948c4.812-1.75,8.863-7.684,9.034-7.936a1.5,1.5,0,0,0-.957-2.312ZM73.2,74.958a1.836,1.836,0,0,1-.878,0,1.557,1.557,0,0,1-.947-.822,1.342,1.342,0,0,1-.136-.534.892.892,0,0,0-.007-.116,1.464,1.464,0,0,1,.416-1.047,1.547,1.547,0,0,1,.472-.348,1.612,1.612,0,0,1,1.262-.005,1.652,1.652,0,0,1,.5.372,1.474,1.474,0,0,1,.4,1.043v.006c0,.032-.007.065-.009.1a1.332,1.332,0,0,1-.146.553A1.543,1.543,0,0,1,73.2,74.958Zm1.086-1.434h0v0Zm-1.754-18.1c1.094,1.92,2.459,4.815,2.459,7.31a11.9,11.9,0,0,1-1.453,6.292,4.826,4.826,0,0,0-.682-.056c-.037,0-.072-.007-.109-.007a4.673,4.673,0,0,0-.768.063,11.891,11.891,0,0,1-1.454-6.292A18.949,18.949,0,0,1,72.529,55.423ZM55.8,67.1a18.885,18.885,0,0,1,7.553.615A11.892,11.892,0,0,1,68.8,71.271c-.062.11-.1.229-.156.343-.039.086-.084.168-.118.257a4.607,4.607,0,0,0-.17.584c-.015.066-.039.128-.051.194,0,.009,0,.018-.007.028a11.864,11.864,0,0,1-6.472-.77C59.489,71.055,57.233,68.783,55.8,67.1ZM67.49,83.157l0,0c-1.6,1.908-4.5,3.252-6.573,4.022a18.947,18.947,0,0,1,3.164-6.888,11.809,11.809,0,0,1,5.2-3.9,4.546,4.546,0,0,0,1.151.984A11.854,11.854,0,0,1,67.49,83.157ZM84.6,87.18c-2.071-.771-4.971-2.115-6.574-4.023a11.819,11.819,0,0,1-2.942-5.779,4.581,4.581,0,0,0,.6-.433c.028-.023.051-.051.078-.075a4.5,4.5,0,0,0,.471-.476,11.819,11.819,0,0,1,5.2,3.9A18.944,18.944,0,0,1,84.6,87.18Zm-.914-15.272a11.852,11.852,0,0,1-6.47.77c0-.009,0-.017-.007-.026-.014-.078-.042-.15-.06-.226a4.542,4.542,0,0,0-.157-.545c-.039-.1-.09-.2-.136-.3s-.086-.211-.142-.311a11.888,11.888,0,0,1,5.447-3.557,18.922,18.922,0,0,1,7.557-.614C88.281,68.783,86.026,71.055,83.681,71.908Z" />
            <path
                d="M66.313,51.311a5.158,5.158,0,0,0,.01-4.809c-1.757-3.791-7.343-7.578-14.554-10.144C57.278,35.534,61.7,33.7,61.7,29.93c0-3.069-3.117-5.908-7.759-7.736,3.26-.96,5-2.647,5-4.981,0-4.251-6.172-8.122-12.95-8.122C38.471,9.091,32.8,12.105,32.8,16.1c0,1.733,1.069,3.281,2.889,4.479-7.522,1.057-13.8,3.866-13.8,7.952,0,2.944,3.257,5.225,7.89,6.666a24.529,24.529,0,0,0-6.431,3.248c-2.891,2.094-4.633,4.538-4.909,6.883a5.773,5.773,0,0,0,1.584,4.5c3.089,3.531,10.123,5.791,16.828,6.608a1.5,1.5,0,0,0,1.477,1.27,55.5,55.5,0,0,1,20.207,3.684,1.5,1.5,0,0,0,1.135-2.778,47.6,47.6,0,0,0-5.931-1.937C59.8,56.27,64.3,54.976,66.313,51.311ZM45.987,12.091c5.677,0,9.95,3.107,9.95,5.122,0,1.4-3.114,2.9-9.95,2.9C39.77,20.117,35.8,17.74,35.8,16.1S39.77,12.091,45.987,12.091ZM24.9,28.535c0-2.181,7.359-5.418,17.525-5.418,9.94,0,16.28,4.474,16.28,6.813,0,1.938-5.1,4.024-16.28,4.024-.051,0-.1,0-.15,0a27.549,27.549,0,0,0-4.357-.223C30.156,32.966,24.9,30.378,24.9,28.535Zm38.79,21.33c-2.332,4.245-11.457,4.093-22.033,3.912-8.074-.136-16.581-2.738-19.365-5.922a2.8,2.8,0,0,1-.861-2.173c.17-1.458,1.549-3.254,3.687-4.8a23.682,23.682,0,0,1,12.812-4.132c1.373.127,2.769.2,4.162.2.506.07,1.016.151,1.53.255C54.438,39.4,61.989,44.284,63.6,47.764A2.133,2.133,0,0,1,63.685,49.865Z" />
            <path
                d="M55.264,87.308a1.5,1.5,0,0,0-.469-2.963c-4,.632-9.029.632-15.4.632C20.646,84.977,9,80.8,9,74.073c0-5.575,6.7-11.52,16.288-14.457a1.5,1.5,0,1,0-.879-2.869C13.4,60.119,6,67.082,6,74.073c0,8.706,12.483,13.9,33.394,13.9C45.9,87.977,51.034,87.977,55.264,87.308Z" />
            <path
                d="M22.851,63.675c-2.015.784-8.631,3.605-9.155,7.007a1.5,1.5,0,0,0,1.254,1.711,1.643,1.643,0,0,0,.231.017,1.5,1.5,0,0,0,1.48-1.271c.157-1.021,3.626-3.245,7.277-4.668a1.5,1.5,0,0,0-1.087-2.8Z" />
            <path
                d="M34.546,48.892c-6.567-1.085-7.027-2.655-7.044-2.721-.095-.386.47-1.067.9-1.391a1.5,1.5,0,0,0-1.785-2.411c-.27.2-2.625,2.017-2.029,4.5.583,2.429,3.593,4.013,9.474,4.983a1.589,1.589,0,0,0,.246.02,1.5,1.5,0,0,0,.242-2.979Z" />
        </g>
    </g>
</svg>